<svg xmlns="http://www.w3.org/2000/svg" width="111" height="32" viewBox="0 0 111 32" fill="none">
    <g fill="#F61E50" clip-path="url(#a)">
        <path d="M21.011 11.843c-.343-2.425-1.897-6.49-8.443-6.502a8.42 8.42 0 0 0-.766-.034H0v6.058h11.802c1.177 0 2.137.957 2.137 2.13s-.96 2.13-2.137 2.13H2.856v6.057h8.946c1.177 0 2.137.957 2.137 2.13s-.96 2.13-2.137 2.13H0V32h11.802c.263 0 .514-.012.766-.034 6.546-.012 8.1-4.077 8.443-6.503.309-2.22-.434-4.51-2.102-6.423l-.343-.375.343-.376c1.668-1.936 2.41-4.225 2.102-6.446Zm20.132 12.083c-1.2 2.676-3.28 4.27-6.158 4.27-4.125 0-6.764-2.835-6.764-7.174V16.24c0-4.35 2.64-7.14 6.684-7.14 2.925 0 5.244 1.72 6.283 4.59l.275.762 3.884-1.434-.24-.718c-1.44-4.35-5.324-6.98-10.202-6.98-6.479 0-10.877 4.27-10.877 10.681v5.261c0 6.423 4.399 10.728 10.957 10.728 4.718 0 8.443-2.471 10.077-6.582l.32-.797-3.92-1.401-.32.717ZM65.216 8.45c-1.886-2.118-4.8-3.155-7.804-3.155-6.364 0-10.637 4.385-10.637 10.887v4.908c0 6.537 4.285 10.887 10.637 10.887 3.165 0 5.884-1.161 7.804-3.154v2.756h4.078V5.705h-4.078V8.45Zm-.116 12.4c0 4.464-2.765 7.334-7.038 7.334-4.284 0-7.083-2.87-7.083-7.334v-4.43c0-4.464 2.799-7.333 7.083-7.333 4.319 0 7.038 2.87 7.038 7.333v4.43ZM77.258 0h-4.204v27.627c0 2.357 1.725 3.952 4.238 3.952h6.238v-3.793h-5.952c-.206 0-.32-.125-.32-.318V9.486h6.284v-3.78h-6.284V0Zm32.652 16.547L91.07 5.706a2.2 2.2 0 0 0-2.993.797 2.186 2.186 0 0 0 .8 2.983l18.828 10.842c.343.193.72.296 1.097.296.754 0 1.497-.387 1.897-1.094a2.172 2.172 0 0 0-.789-2.983Zm-6.318 3.781L91.15 13.165a2.19 2.19 0 0 0-2.993.797 2.176 2.176 0 0 0 .8 2.983l12.442 7.163c.343.194.72.296 1.097.296.754 0 1.496-.387 1.896-1.093.606-1.036.24-2.38-.8-2.983Zm-6.409 3.792-6.033-3.474a2.19 2.19 0 0 0-2.993.798 2.176 2.176 0 0 0 .8 2.983l6.032 3.474c.343.193.72.296 1.097.296.754 0 1.497-.387 1.897-1.094a2.186 2.186 0 0 0-.8-2.983Zm-7.129 3.29a2.24 2.24 0 0 0-2.24 2.233 2.24 2.24 0 0 0 4.479 0 2.24 2.24 0 0 0-2.24-2.232Z"/>
    </g>
</svg>