<svg width="93" height="92" viewBox="0 0 93 92" fill="none" xmlns="http://www.w3.org/2000/svg">
<path d="M27.4891 48.7332H43.7774V65.0215C43.7962 65.7294 44.0907 66.4021 44.598 66.8961C45.1054 67.3902 45.7856 67.6666 46.4937 67.6666C47.2019 67.6666 47.8821 67.3902 48.3895 66.8961C48.8968 66.4021 49.1912 65.7294 49.21 65.0215V48.7332H65.4983C66.2063 48.7144 66.8789 48.42 67.3729 47.9126C67.867 47.4053 68.1435 46.7251 68.1435 46.0169C68.1435 45.3087 67.867 44.6286 67.3729 44.1212C66.8789 43.6138 66.2063 43.3194 65.4983 43.3006H49.21V27.0123C49.1912 26.3044 48.8968 25.6318 48.3895 25.1377C47.8821 24.6437 47.2019 24.3672 46.4937 24.3672C45.7856 24.3672 45.1054 24.6437 44.598 25.1377C44.0907 25.6318 43.7962 26.3044 43.7774 27.0123V43.3006H27.4891C26.7812 43.3194 26.1086 43.6138 25.6145 44.1212C25.1205 44.6286 24.844 45.3087 24.844 46.0169C24.844 46.7251 25.1205 47.4053 25.6145 47.9126C26.1086 48.42 26.7812 48.7144 27.4891 48.7332Z" fill="#808080"/>
<path d="M79.1485 13.3515C70.4738 4.76813 58.7539 -0.0320828 46.5505 0.0001614C34.3471 0.0324056 22.6528 4.89448 14.0236 13.5236C5.39448 22.1528 0.532406 33.8471 0.500161 46.0505C0.467917 58.2539 5.26813 69.9738 13.8515 78.6485C22.5262 87.2319 34.2461 92.0321 46.4495 91.9998C58.6529 91.9676 70.3472 87.1055 78.9764 78.4764C87.6055 69.8472 92.4676 58.1529 92.4998 45.9495C92.5321 33.7461 87.7319 22.0262 79.1485 13.3515ZM46.5105 86.7389C24.0461 86.7389 5.77064 68.4635 5.77064 45.999C5.77064 23.5346 24.0365 5.26105 46.5105 5.26105C68.9846 5.26105 87.2485 23.5365 87.2485 45.999C87.2485 68.4616 68.9635 86.7389 46.5105 86.7389Z" fill="#808080"/>
</svg>
