<svg width="25" height="24" viewBox="0 0 25 24" fill="none" xmlns="http://www.w3.org/2000/svg">
<path d="M10.6419 17.2878C12.4661 17.2895 14.2301 16.636 15.6129 15.4462L21.986 21.8198C22.0403 21.8761 22.1052 21.9211 22.177 21.952C22.2488 21.9829 22.3261 21.9992 22.4042 22C22.4824 22.0007 22.56 21.9859 22.6323 21.9563C22.7047 21.9267 22.7705 21.883 22.8257 21.8277C22.881 21.7724 22.9247 21.7067 22.9543 21.6343C22.9839 21.5619 22.9988 21.4844 22.998 21.4062C22.9973 21.328 22.981 21.2508 22.95 21.179C22.9191 21.1071 22.8742 21.0422 22.8178 20.988L16.4443 14.6148C17.634 13.2321 18.2875 11.468 18.2859 9.6439C18.2859 5.42928 14.857 2 10.6419 2C6.42691 2 2.99805 5.42928 2.99805 9.6439C2.99805 13.8585 6.42733 17.2878 10.6419 17.2878ZM10.6419 3.17614C14.2098 3.17614 17.1101 6.07772 17.1101 9.6439C17.1101 13.2101 14.2086 16.1121 10.6419 16.1121C7.07535 16.1121 4.17419 13.2105 4.17419 9.6439C4.17419 6.0773 7.07576 3.17614 10.6419 3.17614Z" fill="#fff"/>
</svg>
