<svg width="50" height="44" viewBox="0 0 50 44" fill="none"
    xmlns="http://www.w3.org/2000/svg">
    <path d="M0 39.8936V37.5854C0 35.1219 1.80573 33.4844 4.51361 33.4844C6.44802 33.4844 7.91805 34.4131 8.53769 35.909L6.38404 36.8248C5.9973 36.0765 5.3525 35.6129 4.51433 35.6129C3.26355 35.6129 2.42537 36.451 2.42537 37.7148V39.7656C2.42537 41.0293 3.26355 41.8675 4.52727 41.8675C5.40426 41.8675 6.04906 41.3773 6.4358 40.5909L8.60239 41.4549C8.00934 43.0285 6.52637 43.9953 4.52727 43.9953C1.80573 43.9946 0 42.3571 0 39.8936Z" fill="white"/>
    <path d="M16.0996 36.5115V43.8624H14.1228L14.0839 43.0501C13.5807 43.6431 12.8332 43.9918 11.9432 43.9918C10.2022 43.9918 9.0542 42.7798 9.0542 40.9482V39.4264C9.0542 37.5948 10.2022 36.3828 11.9432 36.3828C12.8332 36.3828 13.5807 36.7307 14.0839 37.3245L14.1228 36.5122H16.0996V36.5115ZM13.8913 40.7031V39.6715C13.8913 38.898 13.3881 38.3819 12.6405 38.3819C11.88 38.3819 11.3768 38.898 11.3768 39.6715V40.7031C11.3768 41.4765 11.88 41.9927 12.6405 41.9927C13.3881 41.9927 13.8913 41.4773 13.8913 40.7031Z" fill="white"/>
    <path d="M19.4511 38.3221V41.9199C19.4511 42.0105 19.5028 42.0616 19.5927 42.0616H20.9599V43.8673H19.441C18.1126 43.8673 17.2356 43.1449 17.2356 42.0486V34.5547H19.4511V36.5171H20.9599V38.3229H19.4511V38.3221Z" fill="white"/>
    <path d="M23.2147 43.8707H22.0459V36.5234H23.1752L23.1838 37.2761C23.6949 36.7873 24.3958 36.5234 25.211 36.5234H25.9679V37.6175H25.0995C23.9724 37.6175 23.2147 38.3903 23.2147 39.5397V43.8707Z" fill="white"/>
    <path d="M28.7531 43.991C26.9416 43.991 25.7246 42.7438 25.7246 40.8884V39.4932C25.7246 37.6371 26.9416 36.3906 28.7531 36.3906C29.6358 36.3906 30.3834 36.6825 30.9168 37.2238L30.9247 36.5135H32.054V43.8673H30.9247L30.9168 43.1434C30.3791 43.6883 29.6193 43.991 28.7531 43.991ZM28.876 37.4847C27.6712 37.4847 26.892 38.297 26.892 39.555V40.8144C26.892 42.0716 27.6705 42.8847 28.876 42.8847C30.0959 42.8847 30.8845 42.0724 30.8845 40.8144V39.555C30.8845 38.2977 30.0966 37.4847 28.876 37.4847Z" fill="white"/>
    <path d="M36.1286 43.9864C34.3171 43.9864 33.1001 42.7392 33.1001 40.8839V39.4886C33.1001 37.6326 34.3171 36.3861 36.1286 36.3861C36.9876 36.3861 37.7244 36.6693 38.2607 37.1955V33.8594H39.4295V43.8635H38.3002L38.2923 43.1396C37.7553 43.6838 36.9955 43.9864 36.1286 43.9864ZM36.2522 37.4802C35.0474 37.4802 34.2682 38.2925 34.2682 39.5505V40.8099C34.2682 42.0671 35.0467 42.8801 36.2522 42.8801C37.4721 42.8801 38.2607 42.0678 38.2607 40.8099V39.5505C38.2607 38.2932 37.4721 37.4802 36.2522 37.4802Z" fill="white"/>
    <path d="M41.9069 43.8635H40.7388V36.5162H41.9069V43.8635ZM41.9069 35.1921H40.7388V33.8594H41.9069V35.1921Z" fill="white"/>
    <path d="M46.3311 43.9909C44.4384 43.9909 43.1667 42.7294 43.1667 40.851V39.5305C43.1667 37.6522 44.4384 36.3906 46.3311 36.3906C48.2238 36.3906 49.4954 37.6522 49.4954 39.5305V40.8518C49.4954 42.7294 48.2238 43.9909 46.3311 43.9909ZM46.3311 37.4847C45.1371 37.4847 44.3349 38.3214 44.3349 39.5672V40.8144C44.3349 42.0716 45.1184 42.8846 46.3311 42.8846C47.5438 42.8846 48.3273 42.0724 48.3273 40.8144V39.5672C48.3273 38.302 47.5438 37.4847 46.3311 37.4847Z" fill="white"/>
    <path d="M27.6887 33.7188L27.2747 34.7539L30.3412 35.9795L30.6784 35.1363L27.6887 33.7188Z" fill="white"/>
    <path fill-rule="evenodd" clip-rule="evenodd" d="M22.0466 18.5172L0.0361328 31.2249V19.1807L32.108 0.664062V12.0487L49.5517 1.97172V14.0159L22.0466 29.9052V18.5172Z" fill="#FFD000"/>
</svg>
