<svg width="47" height="40" viewBox="0 0 47 40" fill="none"
    xmlns="http://www.w3.org/2000/svg">
    <path d="M0.925171 36.2138V34.0832C0.925171 31.8092 2.59594 30.2976 5.10144 30.2976C6.89126 30.2976 8.25143 31.155 8.82476 32.5358L6.83207 33.3812C6.47424 32.6904 5.87763 32.2624 5.1021 32.2624C3.9448 32.2624 3.16927 33.0361 3.16927 34.2026V36.0957C3.16927 37.2622 3.9448 38.0359 5.11407 38.0359C5.92551 38.0359 6.52212 37.5834 6.87996 36.8575L8.88462 37.6551C8.3359 39.1076 6.96376 40 5.11407 40C2.59594 39.9994 0.925171 38.4878 0.925171 36.2138Z" fill="#ffffff"/>
    <path d="M15.8215 33.0944V39.8799H13.9924L13.9565 39.1301C13.4909 39.6775 12.7992 39.9993 11.9758 39.9993C10.3649 39.9993 9.30267 38.8806 9.30267 37.1899V35.7851C9.30267 34.0944 10.3649 32.9757 11.9758 32.9757C12.7992 32.9757 13.4909 33.2968 13.9565 33.8449L13.9924 33.0951H15.8215V33.0944ZM13.7782 36.9636V36.0114C13.7782 35.2974 13.3127 34.821 12.6209 34.821C11.9172 34.821 11.4517 35.2974 11.4517 36.0114V36.9636C11.4517 37.6776 11.9172 38.154 12.6209 38.154C13.3127 38.154 13.7782 37.6782 13.7782 36.9636Z" fill="#ffffff"/>
    <path d="M18.9225 34.7613V38.0823C18.9225 38.1659 18.9704 38.2131 19.0536 38.2131H20.3186V39.8799H18.9132C17.6841 39.8799 16.8726 39.213 16.8726 38.2011V31.2836H18.9225V33.0951H20.3186V34.7619H18.9225V34.7613Z" fill="#ffffff"/>
    <path d="M22.4048 39.8819H21.3233V33.0998H22.3682L22.3762 33.7945C22.8491 33.3433 23.4975 33.0998 24.2518 33.0998H24.9522V34.1097H24.1487C23.1058 34.1097 22.4048 34.823 22.4048 35.884V39.8819Z" fill="#ffffff"/>
    <path d="M27.5292 39.9954C25.8531 39.9954 24.727 38.8441 24.727 37.1315V35.8435C24.727 34.1303 25.8531 32.9797 27.5292 32.9797C28.3459 32.9797 29.0377 33.2491 29.5312 33.7487L29.5385 33.0931H30.5834V39.8812H29.5385L29.5312 39.213C29.0337 39.716 28.3306 39.9954 27.5292 39.9954ZM27.6429 33.9896C26.5282 33.9896 25.8072 34.7394 25.8072 35.9006V37.0631C25.8072 38.2237 26.5275 38.9742 27.6429 38.9742C28.7716 38.9742 29.5013 38.2243 29.5013 37.0631V35.9006C29.5013 34.7401 28.7723 33.9896 27.6429 33.9896Z" fill="#ffffff"/>
    <path d="M34.3536 39.9953C32.6775 39.9953 31.5515 38.844 31.5515 37.1314V35.8435C31.5515 34.1302 32.6775 32.9796 34.3536 32.9796C35.1484 32.9796 35.8302 33.241 36.3263 33.7267V30.6472H37.4078V39.8818H36.3629L36.3556 39.2136C35.8588 39.7159 35.1557 39.9953 34.3536 39.9953ZM34.468 33.9895C33.3533 33.9895 32.6323 34.7393 32.6323 35.9005V37.0631C32.6323 38.2236 33.3526 38.9741 34.468 38.9741C35.5967 38.9741 36.3263 38.2243 36.3263 37.0631V35.9005C36.3263 34.74 35.5967 33.9895 34.468 33.9895Z" fill="#ffffff"/>
    <path d="M39.6998 39.8818H38.619V33.0997H39.6998V39.8818ZM39.6998 31.8774H38.619V30.6472H39.6998V31.8774Z" fill="#ffffff"/>
    <path d="M43.7934 39.9952C42.0421 39.9952 40.8655 38.8307 40.8655 37.0968V35.8779C40.8655 34.1441 42.0421 32.9795 43.7934 32.9795C45.5446 32.9795 46.7212 34.1441 46.7212 35.8779V37.0975C46.7212 38.8307 45.5446 39.9952 43.7934 39.9952ZM43.7934 33.9895C42.6886 33.9895 41.9464 34.7618 41.9464 35.9118V37.063C41.9464 38.2236 42.6713 38.974 43.7934 38.974C44.9154 38.974 45.6404 38.2242 45.6404 37.063V35.9118C45.6404 34.7439 44.9154 33.9895 43.7934 33.9895Z" fill="#ffffff"/>
    <path d="M26.5444 30.5159L26.1613 31.4715L28.9987 32.6028L29.3106 31.8245L26.5444 30.5159Z" fill="#ffffff"/>
    <path fill-rule="evenodd" clip-rule="evenodd" d="M21.324 16.4799L0.958618 28.2101V17.0923L30.6335 0V10.5089L46.7734 1.20707V12.3248L21.324 26.9919V16.4799Z" fill="#ffffff"/>
</svg>
