<svg width="24" height="24" viewBox="0 0 24 24" fill="none" xmlns="http://www.w3.org/2000/svg">
<path fill-rule="evenodd" clip-rule="evenodd" d="M18.2395 5.16834C18.1299 5.27495 18.0684 5.41911 18.0684 5.56937C18.0684 5.71963 18.1299 5.8638 18.2395 5.9704C19.0589 6.76205 19.7089 7.7019 20.1524 8.73629C20.5959 9.77067 20.8242 10.8793 20.8242 11.9989C20.8242 13.1186 20.5959 14.2272 20.1524 15.2616C19.7089 16.296 19.0589 17.2358 18.2395 18.0275C18.1389 18.1359 18.0852 18.2774 18.0894 18.4229C18.0936 18.5684 18.1554 18.7069 18.2621 18.8097C18.3687 18.9125 18.5122 18.9718 18.6628 18.9755C18.8134 18.9792 18.9597 18.927 19.0717 18.8296C20.9467 17.0172 22 14.5595 22 11.9969C22 9.43439 20.9467 6.97673 19.0717 5.16433C18.9607 5.05835 18.8107 4.99926 18.6547 5.00001C18.4987 5.00076 18.3493 5.0613 18.2395 5.16834ZM15.7435 16.4227C15.8538 16.5293 16.0035 16.5892 16.1596 16.5892C16.3156 16.5892 16.4653 16.5293 16.5757 16.4227C17.7892 15.2501 18.4709 13.6598 18.4709 12.0015C18.4709 10.3433 17.7892 8.75296 16.5757 7.58034C16.5223 7.52283 16.4574 7.47642 16.3849 7.44395C16.3123 7.41147 16.2337 7.39361 16.1538 7.39146C16.0739 7.3893 15.9944 7.40289 15.9201 7.4314C15.8458 7.45992 15.7783 7.50275 15.7217 7.55729C15.6651 7.61184 15.6206 7.67694 15.5909 7.74865C15.5613 7.82035 15.547 7.89715 15.549 7.97436C15.5511 8.05157 15.5693 8.12756 15.6028 8.19772C15.6362 8.26787 15.6841 8.33071 15.7435 8.3824C16.2351 8.8574 16.6251 9.42131 16.8912 10.0419C17.1573 10.6626 17.2942 11.3278 17.2942 11.9995C17.2942 12.6713 17.1573 13.3365 16.8912 13.9571C16.6251 14.5777 16.2351 15.1417 15.7435 15.6167C15.6886 15.6695 15.645 15.7323 15.6153 15.8015C15.5856 15.8707 15.5703 15.9448 15.5703 16.0197C15.5703 16.0946 15.5856 16.1687 15.6153 16.2379C15.645 16.3071 15.6886 16.3699 15.7435 16.4227ZM12.0002 14.8426C13.6248 14.8426 14.9418 13.5701 14.9418 12.0005C14.9418 10.4308 13.6248 9.15833 12.0002 9.15833C10.3756 9.15833 9.05859 10.4308 9.05859 12.0005C9.05859 13.5701 10.3756 14.8426 12.0002 14.8426ZM7.84042 7.41272C7.99645 7.41272 8.1461 7.47254 8.25652 7.57904C8.31142 7.63191 8.35497 7.69472 8.38469 7.76388C8.41441 7.83305 8.4297 7.9072 8.4297 7.98208C8.4297 8.05697 8.41441 8.13111 8.38469 8.20028C8.35497 8.26944 8.31142 8.33225 8.25652 8.38512C7.265 9.34514 6.70815 10.646 6.70815 12.0022C6.70815 13.3585 7.265 14.6593 8.25652 15.6194C8.31591 15.6711 8.36378 15.7339 8.39721 15.8041C8.43064 15.8742 8.44893 15.9502 8.45096 16.0274C8.45299 16.1046 8.43873 16.1814 8.40903 16.2531C8.37934 16.3248 8.33484 16.3899 8.27824 16.4445C8.22165 16.499 8.15415 16.5419 8.07986 16.5704C8.00557 16.5989 7.92605 16.6125 7.84615 16.6103C7.76625 16.6082 7.68764 16.5903 7.61511 16.5578C7.54259 16.5254 7.47767 16.4789 7.42431 16.4214C4.90153 13.9836 4.90153 10.0169 7.42431 7.57904C7.53474 7.47254 7.68439 7.41272 7.84042 7.41272ZM5.67057 18.9036C5.57401 18.9662 5.46044 18.9997 5.34418 19C5.26707 19.0003 5.19065 18.986 5.11929 18.9578C5.04792 18.9296 4.98302 18.888 4.92828 18.8356C3.05329 17.0232 2 14.5655 2 12.0029C2 9.44039 3.05329 6.98273 4.92828 5.17033C5.04022 5.0729 5.18657 5.02065 5.33719 5.02435C5.4878 5.02805 5.63121 5.08742 5.73788 5.19023C5.84455 5.29303 5.90635 5.43145 5.91056 5.57696C5.91477 5.72247 5.86106 5.864 5.76049 5.9724C2.31958 9.29657 2.31958 14.7069 5.75925 18.0295C5.8414 18.109 5.89735 18.2102 5.92004 18.3203C5.94273 18.4305 5.93114 18.5447 5.88674 18.6485C5.84235 18.7523 5.76712 18.8411 5.67057 18.9036Z" fill="#fff"/>
</svg>
