<svg width="48" height="22" viewBox="0 0 48 22" fill="none" xmlns="http://www.w3.org/2000/svg">
<path d="M0.344839 5.67566C0.606259 3.77906 1.82622 0.594859 6.93261 0.594859C7.12432 0.577459 7.33345 0.560059 7.52516 0.560059H16.7271V5.29286H7.52516C6.60148 5.29286 5.85208 6.04106 5.85208 6.96326C5.85208 7.88546 6.60148 8.63366 7.52516 8.63366H12.9627V13.3665H7.52516C6.60148 13.3665 5.85208 14.1147 5.85208 15.0369C5.85208 15.9591 6.60148 16.7073 7.52516 16.7073H16.7271V21.4401H7.52516C7.31602 21.4401 7.12432 21.4227 6.93261 21.4053C1.82622 21.3705 0.606259 18.1863 0.344839 16.2897C0.100848 14.5497 0.67597 12.7749 1.98307 11.2785C2.07021 11.1741 2.15735 11.0871 2.26192 10.9827C2.17478 10.8783 2.08764 10.7913 1.98307 10.6869C0.67597 9.19046 0.100848 7.41566 0.344839 5.67566ZM17.7554 21.4053C26.3822 21.4053 32.5866 16.9683 32.5866 7.13726V0.560059H27.4453V7.03286C27.4453 11.2089 26.1208 14.1669 22.9141 15.4023V0.560059H17.7728V21.4053H17.7554ZM32.6911 21.4053H37.8324V18.3777H42.3637V21.4053H47.5223V0.560059C38.8955 0.560059 32.6911 4.99706 32.6911 14.9499V21.4053ZM38.1112 13.4013C38.4075 10.0431 39.8017 7.65926 42.5902 6.58046V13.4013H38.1112Z" fill="#D74494"/>
</svg>
