<svg width="110" height="48" fill="none" xmlns="http://www.w3.org/2000/svg"><path d="M1.12 11.76C1.721 7.4 4.526.08 16.264.08c.441-.04.922-.08 1.363-.08H38.78v10.88H17.627a3.844 3.844 0 0 0-3.847 3.84c0 2.12 1.723 3.84 3.847 3.84h12.5v10.88h-12.5a3.844 3.844 0 0 0-3.847 3.84c0 2.12 1.723 3.84 3.847 3.84H38.78V48H17.627c-.481 0-.922-.04-1.363-.08-11.738-.08-14.543-7.4-15.144-11.76-.56-4 .761-8.08 3.766-11.52.2-.24.4-.44.641-.68-.2-.24-.4-.44-.64-.68C1.88 19.84.558 15.76 1.12 11.76Zm40.024 36.16c19.832 0 34.095-10.2 34.095-32.8V0H63.42v14.88c0 9.6-3.045 16.4-10.417 19.24V0H41.184v47.92h-.04Zm34.335 0H87.3v-6.96h10.416v6.96h11.859V0C89.742 0 75.479 10.2 75.479 33.08v14.84Zm12.46-18.4c.682-7.72 3.887-13.2 10.297-15.68v15.68H87.939Z" fill="#fff"/></svg>