<svg width="24" height="24" viewBox="0 0 24 24" fill="none" xmlns="http://www.w3.org/2000/svg">
<path d="M19.0985 4.90251C17.2127 3.03655 14.6649 1.99303 12.012 2.00004C9.35905 2.00704 6.81679 3.06402 4.94089 4.93992C3.06499 6.81582 2.00802 9.35807 2.00101 12.011C1.994 14.6639 3.03753 17.2117 4.90349 19.0975C6.78927 20.9635 9.33708 22.007 11.99 22C14.6429 21.993 17.1852 20.936 19.0611 19.0601C20.937 17.1842 21.9939 14.6419 22.0009 11.989C22.0079 9.3361 20.9644 6.7883 19.0985 4.90251ZM12.0033 20.8563C7.11969 20.8563 3.14677 16.8834 3.14677 11.9998C3.14677 7.11622 7.11761 3.14371 12.0033 3.14371C16.8889 3.14371 20.8594 7.11664 20.8594 11.9998C20.8594 16.8829 16.8843 20.8563 12.0033 20.8563Z" fill="#fff"/>
<path d="M13.7716 16.428H12.591V10.5239C12.591 10.4463 12.5758 10.3695 12.5461 10.2979C12.5164 10.2262 12.4729 10.1611 12.418 10.1063C12.3631 10.0515 12.298 10.008 12.2264 9.97837C12.1547 9.94873 12.0779 9.9335 12.0003 9.93356H10.2294C10.1506 9.93146 10.0721 9.94519 9.99862 9.97392C9.92514 10.0027 9.85817 10.0458 9.80165 10.1009C9.74512 10.1559 9.7002 10.2217 9.66952 10.2944C9.63885 10.3671 9.62305 10.4452 9.62305 10.5241C9.62305 10.603 9.63885 10.681 9.66952 10.7537C9.7002 10.8264 9.74512 10.8922 9.80165 10.9473C9.85817 11.0023 9.92514 11.0455 9.99862 11.0742C10.0721 11.1029 10.1506 11.1167 10.2294 11.1146H11.41V16.428H10.2294C10.1506 16.426 10.0721 16.4397 9.99862 16.4684C9.92514 16.4971 9.85817 16.5403 9.80165 16.5953C9.74512 16.6504 9.7002 16.7162 9.66952 16.7889C9.63885 16.8616 9.62305 16.9397 9.62305 17.0185C9.62305 17.0974 9.63885 17.1755 9.66952 17.2482C9.7002 17.3209 9.74512 17.3867 9.80165 17.4418C9.85817 17.4968 9.92514 17.54 9.99862 17.5687C10.0721 17.5974 10.1506 17.6111 10.2294 17.6091H13.7704C13.8492 17.6111 13.9277 17.5974 14.0012 17.5687C14.0747 17.54 14.1417 17.4968 14.1982 17.4418C14.2547 17.3867 14.2996 17.3209 14.3303 17.2482C14.361 17.1755 14.3768 17.0974 14.3768 17.0185C14.3768 16.9397 14.361 16.8616 14.3303 16.7889C14.2996 16.7162 14.2547 16.6504 14.1982 16.5953C14.1417 16.5403 14.0747 16.4971 14.0012 16.4684C13.9277 16.4397 13.8492 16.426 13.7704 16.428H13.7716Z" fill="#fff"/>
<path d="M13.1819 7.57179C13.1819 6.91965 12.6532 6.39099 12.0011 6.39099C11.349 6.39099 10.8203 6.91965 10.8203 7.57179C10.8203 8.22392 11.349 8.75259 12.0011 8.75259C12.6532 8.75259 13.1819 8.22392 13.1819 7.57179Z" fill="#fff"/>
</svg>
