<svg xmlns="http://www.w3.org/2000/svg" width="26" height="20" fill="none"><path fill="#fff" fill-rule="evenodd" d="M24.5 1.64h-23v14h23v-14ZM1.5.14H0v17h3.852l-1.038 2.038 1.337.681 1.385-2.718h14.627l1.385 2.718 1.336-.68-1.038-2.038H26v-17H1.5Zm16.509 10.064c-.939 1.303-1.259 2.89-1.259 3.937h-1.5c0-1.287.38-3.2 1.541-4.814 1.19-1.651 3.165-2.936 6.209-2.936v1.5c-2.556 0-4.08 1.048-4.991 2.313Zm1.741 3.937c0-.547.17-1.384.659-2.062.46-.64 1.235-1.188 2.591-1.188v-1.5c-1.844 0-3.07.785-3.809 1.811-.711.989-.941 2.152-.941 2.939h1.5ZM15.4 8.323c-1.352 1.916-1.728 4.24-1.65 5.78l-1.499.075c-.09-1.792.335-4.469 1.924-6.72C15.793 5.165 18.569 3.391 23 3.391v1.5c-3.97 0-6.277 1.558-7.6 3.432Zm7.6 4.318h-1.5v1.5H23v-1.5Z" clip-rule="evenodd"/></svg>