<svg width="131" height="66" viewBox="0 0 131 66" fill="none" xmlns="http://www.w3.org/2000/svg"><path d="M123.287 33.251c3.356-1.467 7.06-6.253 7.06-12.763 0-15.698-15.33-19.402-22.501-19.402-7.078 0-22.024 3.503-22.354 20.85h14.836c.22-4.566 3.007-7.72 7.702-7.793 4.841 0 7.353 2.75 7.353 6.84 0 4.713-2.805 6.895-6.84 6.895h-4.254v10.746h4.254c4.035 0 6.84 2.182 6.84 6.895 0 4.09-2.512 6.84-7.353 6.84-4.658-.091-7.427-3.172-7.702-7.665H85.492c.404 17.238 15.276 20.722 22.354 20.722 7.171 0 22.501-3.686 22.501-19.402 0-6.767-3.777-11.168-7.06-12.763Z" fill="#fff"/><path d="M41.958 21.94c0-11.59-9.39-20.98-20.98-20.98C9.39.96 0 10.35 0 21.94h41.958Z" fill="#40D183"/><path d="M41.958 44.695c0-11.59-9.39-20.979-20.98-20.979v-1.779H0c0 11.59 9.39 20.98 20.979 20.98v1.778h20.979Z" fill="#FD4F62"/><path d="M84.04 2.532 66.962 19.609 80.63 33.276 97.707 16.2 84.04 2.532Z" fill="#fff"/><path d="M80.625 33.255 66.958 46.922l17.077 17.077 13.668-13.667-17.078-17.077Z" fill="#fff"/><path d="M49.88 2.523 36.218 16.185l17.09 17.091-17.09 17.073L49.88 64.011l17.072-17.073 13.662-13.662L49.88 2.523Z" fill="#40D183"/><path d="M0 44.695c0 11.59 9.39 20.98 20.979 20.98 11.59 0 20.979-9.39 20.979-20.98H0Z" fill="#fff"/></svg>