<svg version="1.1" 
	xmlns="http://www.w3.org/2000/svg"
	xmlns:xlink="http://www.w3.org/1999/xlink" x="0px" y="0px" width="203.712px" height="160.165px" viewBox="0 0 203.712 160.165" enable-background="new 0 0 203.712 160.165" xml:space="preserve">
	<g id="Background">
	</g>
	<g id="Guides">
	</g>
	<g id="Foreground">
		<g>
			<path fill="#FFFFFF" d="M169.597,79.401c20.088-10.672,18.59-29.279,18.59-33.658C188.187,21.536,162.878,0,133.554,0
			C116.626,0,97.53,6.502,88.09,20.498c-6.507,9.454-9.691,20.854-10.303,26.392h39.144c0.818-3.51,3.473-13.961,17.422-14.163
			c11.268,0,16.6,7.392,16.6,17.022c0,14.371-14.756,15.388-20.285,15.388h-10.539v28.53h10.539c5.529,0,20.285,1.021,20.285,15.396
			c0,9.656-5.332,17.023-16.6,17.023c-13.951-0.197-16.604-10.666-17.422-14.146H77.786c0.609,5.533,1.631,17.021,8.404,26.875
			c9.828,14.572,29.706,21.35,47.331,21.35c30.527,0,56.162-21.137,56.162-47.627C189.685,107.985,189.685,90.079,169.597,79.401
			L169.597,79.401z"/>
			<polygon fill="#E4191D" points="0,27.19 92.107,79.401 77.467,87.89 0,43.959 		"/>
			<polygon fill="#E4191D" points="0,54.143 68.339,92.879 53.695,101.368 0,70.91 		"/>
			<polygon fill="#E4191D" points="0,81.097 44.567,106.458 29.926,114.948 0,97.86 		"/>
			<polygon fill="#E4191D" points="0,108.043 20.801,119.937 0,131.817 		"/>
		</g>
	</g>
</svg>
